<svg width="32" height="32" xmlns="http://www.w3.org/2000/svg" xmlns:xlink="http://www.w3.org/1999/xlink" xml:space="preserve" overflow="hidden"><g transform="translate(-624 -344)"><path d="M651.414 368.586 646.337 363.509C647.386 361.928 648 360.035 648 358 648 352.486 643.514 348 638 348 632.486 348 628 352.486 628 358 628 363.514 632.486 368 638 368 640.035 368 641.928 367.386 643.509 366.337L648.586 371.414C649.366 372.195 650.634 372.195 651.414 371.414 652.195 370.633 652.195 369.367 651.414 368.586ZM631 358C631 354.14 634.14 351 638 351 641.86 351 645 354.14 645 358 645 361.86 641.86 365 638 365 634.14 365 631 361.86 631 358Z" fill="#FFFFFF"/></g></svg>