<?xml version="1.0" ?><svg fill="none" height="24" viewBox="0 0 24 24" width="24" xmlns="http://www.w3.org/2000/svg"><path clip-rule="evenodd" d="M22 4C22 5.29974 21.1727 6.88901 20.387 8.1053C19.7184 9.1403 18.2816 9.1403 17.613 8.1053C16.8273 6.88901 16 5.29974 16 4C16 2.34315 17.3431 1 19 1C20.6569 1 22 2.34315 22 4ZM8 18C8 19.2997 7.17269 20.889 6.38697 22.1053C5.71837 23.1403 4.28163 23.1403 3.61303 22.1053C2.82731 20.889 2 19.2997 2 18C2 16.3431 3.34315 15 5 15C6.65685 15 8 16.3431 8 18ZM10.1 5C7.83563 5 6 6.83563 6 9.1C6 11.3644 7.83563 13.2 10.1 13.2H16.1C17.1493 13.2 18 14.0507 18 15.1C18 16.1493 17.1493 17 16.1 17H11C10.4477 17 10 17.4477 10 18C10 18.5523 10.4477 19 11 19H16.1C18.2539 19 20 17.2539 20 15.1C20 12.9461 18.2539 11.2 16.1 11.2H10.1C8.9402 11.2 8 10.2598 8 9.1C8 7.9402 8.9402 7 10.1 7H14C14.5523 7 15 6.55228 15 6C15 5.44772 14.5523 5 14 5H10.1Z" fill="#443C67" fill-rule="evenodd"/></svg>