<svg width="448" height="512" xmlns="http://www.w3.org/2000/svg" xmlns:xlink="http://www.w3.org/1999/xlink" xml:space="preserve" overflow="hidden"><g transform="translate(-416 -104)"><path d="M576 136 576 168 704 168 704 136C704 118.33 718.3 104 736 104 753.7 104 768 118.33 768 136L768 168 816 168C842.5 168 864 189.49 864 216L864 264 416 264 416 216C416 189.49 437.49 168 464 168L512 168 512 136C512 118.33 526.3 104 544 104 561.7 104 576 118.33 576 136ZM416 296 864 296 864 568C864 594.5 842.5 616 816 616L464 616C437.49 616 416 594.5 416 568L416 296ZM480 408C480 416.8 487.16 424 496 424L528 424C536.8 424 544 416.8 544 408L544 376C544 367.2 536.8 360 528 360L496 360C487.16 360 480 367.2 480 376L480 408ZM608 408C608 416.8 615.2 424 624 424L656 424C664.8 424 672 416.8 672 408L672 376C672 367.2 664.8 360 656 360L624 360C615.2 360 608 367.2 608 376L608 408ZM752 360C743.2 360 736 367.2 736 376L736 408C736 416.8 743.2 424 752 424L784 424C792.8 424 800 416.8 800 408L800 376C800 367.2 792.8 360 784 360L752 360ZM480 536C480 544.8 487.16 552 496 552L528 552C536.8 552 544 544.8 544 536L544 504C544 495.2 536.8 488 528 488L496 488C487.16 488 480 495.2 480 504L480 536ZM624 488C615.2 488 608 495.2 608 504L608 536C608 544.8 615.2 552 624 552L656 552C664.8 552 672 544.8 672 536L672 504C672 495.2 664.8 488 656 488L624 488ZM736 536C736 544.8 743.2 552 752 552L784 552C792.8 552 800 544.8 800 536L800 504C800 495.2 792.8 488 784 488L752 488C743.2 488 736 495.2 736 504L736 536Z" fill="#181717"/></g></svg>