<svg width="24" height="24" xmlns="http://www.w3.org/2000/svg" xmlns:xlink="http://www.w3.org/1999/xlink" xml:space="preserve" overflow="hidden"><g transform="translate(-761 -425)"><path d="M783 429C783 430.3 782.173 431.889 781.387 433.105 780.718 434.14 779.282 434.14 778.613 433.105 777.827 431.889 777 430.3 777 429 777 427.343 778.343 426 780 426 781.657 426 783 427.343 783 429ZM769 443C769 444.3 768.173 445.889 767.387 447.105 766.718 448.14 765.282 448.14 764.613 447.105 763.827 445.889 763 444.3 763 443 763 441.343 764.343 440 766 440 767.657 440 769 441.343 769 443ZM771.1 430C768.836 430 767 431.836 767 434.1 767 436.364 768.836 438.2 771.1 438.2L777.1 438.2C778.149 438.2 779 439.051 779 440.1 779 441.149 778.149 442 777.1 442L772 442C771.448 442 771 442.448 771 443 771 443.552 771.448 444 772 444L777.1 444C779.254 444 781 442.254 781 440.1 781 437.946 779.254 436.2 777.1 436.2L771.1 436.2C769.94 436.2 769 435.26 769 434.1 769 432.94 769.94 432 771.1 432L775 432C775.552 432 776 431.552 776 431 776 430.448 775.552 430 775 430L771.1 430Z" fill="#181717" fill-rule="evenodd"/></g></svg>