<svg width="32" height="32" xmlns="http://www.w3.org/2000/svg" xmlns:xlink="http://www.w3.org/1999/xlink" xml:space="preserve" overflow="hidden"><g transform="translate(-584 -213)"><path d="M611.414 237.586 606.337 232.509C607.386 230.928 608 229.035 608 227 608 221.486 603.514 217 598 217 592.486 217 588 221.486 588 227 588 232.514 592.486 237 598 237 600.035 237 601.928 236.386 603.509 235.337L608.586 240.414C609.366 241.195 610.634 241.195 611.414 240.414 612.195 239.633 612.195 238.367 611.414 237.586ZM591 227C591 223.14 594.14 220 598 220 601.86 220 605 223.14 605 227 605 230.86 601.86 234 598 234 594.14 234 591 230.86 591 227Z" fill="#FFFFFF"/></g></svg>