<svg width="512" height="512" xmlns="http://www.w3.org/2000/svg" xmlns:xlink="http://www.w3.org/1999/xlink" xml:space="preserve" overflow="hidden"><g transform="translate(-112 -104)"><path d="M368 572.5C485.36 572.5 580.5 477.36 580.5 360 580.5 242.64 485.36 147.5 368 147.5 250.64 147.5 155.5 242.64 155.5 360 155.5 477.36 250.64 572.5 368 572.5ZM299.86 348.5 413.55 235.14C416.67 232.03 420.76 230.47 424.85 230.47 428.95 230.47 433.05 232.04 436.18 235.17 442.42 241.43 442.4 251.56 436.15 257.8L333.8 359.85 436.16 462.21C442.41 468.46 442.41 478.59 436.16 484.84 429.91 491.09 419.78 491.09 413.53 484.84L299.84 371.15C296.84 368.15 295.15 364.07 295.15 359.82 295.15 355.57 296.85 351.5 299.86 348.5Z" fill="#333333"/></g></svg>