<svg width="512" height="512" xmlns="http://www.w3.org/2000/svg" xmlns:xlink="http://www.w3.org/1999/xlink" xml:space="preserve" overflow="hidden"><g transform="translate(-640 -104)"><path d="M896 147.5C778.64 147.5 683.5 242.64 683.5 360 683.5 477.36 778.64 572.5 896 572.5 1013.36 572.5 1108.5 477.36 1108.5 360 1108.5 242.64 1013.36 147.5 896 147.5ZM964.14 371.5 850.45 484.86C847.33 487.97 843.24 489.53 839.15 489.53 835.05 489.53 830.95 487.96 827.82 484.83 821.58 478.57 821.6 468.44 827.85 462.2L930.2 360.15 827.84 257.79C821.59 251.54 821.59 241.41 827.84 235.16 834.09 228.91 844.22 228.91 850.47 235.16L964.16 348.85C967.16 351.85 968.85 355.93 968.85 360.18 968.85 364.43 967.15 368.5 964.14 371.5Z" fill="#333333"/></g></svg>