<svg xmlns="http://www.w3.org/2000/svg" width="648.71887pt" height="150pt" viewBox="0 0 648.71886 150"><symbol id="a" transform="translate(-207.982 -708.274)" viewBox="0 0 2324 3351"><image width="2324" height="3351"/></symbol><path fill="#015eab" d="M361.835 124.708h-5.699s-8.414 8.764-9.593 9.975v-9.975h-4.138v25.08h4.138v-12.251c1.195 1.382 10.65 12.251 10.65 12.251h5.789s-11.951-13.276-12.423-13.796l11.276-11.284M372.062 147.2c-3.106 0-4.675-2.106-4.675-6.252 0-2.845.805-6.243 4.675-6.243 3.845 0 4.65 3.398 4.65 6.243 0 2.854-.805 6.252-4.65 6.252m0-15.585c-5.44 0-8.821 3.577-8.821 9.333 0 5.764 3.382 9.341 8.82 9.341 5.415 0 8.789-3.577 8.789-9.34 0-5.757-3.374-9.334-8.788-9.334M484.111 149.788h3.967v-17.682h-3.967zM483.94 128.96h4.577v-4.253h-4.577zM492.761 149.788h3.967v-25.08h-3.967zM521.197 147.2c-3.87 0-4.682-3.398-4.682-6.252 0-2.845.813-6.243 4.682-6.243 3.838 0 4.659 3.398 4.659 6.243 0 2.854-.821 6.252-4.659 6.252m0-15.585c-5.438 0-8.812 3.577-8.812 9.333 0 5.764 3.374 9.341 8.812 9.341 5.423 0 8.789-3.577 8.789-9.34 0-5.757-3.366-9.334-8.789-9.334M563.608 140.915c0 2.91-.772 6.39-4.398 6.39-3.244 0-4.398-3.3-4.398-6.39 0-2.877.764-6.308 4.398-6.308 3.235 0 4.398 3.26 4.398 6.308m3.927 5.496v-21.706h-3.968v8.95c-1.097-1.292-2.788-2.04-4.934-2.04-5.87 0-7.96 5.032-7.96 9.333 0 4.309 1.944 9.341 7.39 9.341 2.496 0 4.35-.886 5.545-2.488.032.732.065 1.992.065 1.992h4.065s-.203-2.049-.203-3.382M697.712 143.757c-.154 2.22-1.292 3.447-3.227 3.447-2.553 0-3.854-2.105-3.854-6.252 0-4.146 1.301-6.251 3.854-6.251 1.886 0 2.927 1.089 3.097 3.251l.017.358h3.967l-.024-.398c-.171-3.772-2.903-6.293-6.805-6.293-5.081 0-8.235 3.626-8.235 9.463 0 5.854 2.902 9.203 7.959 9.203 4.04 0 6.942-2.601 7.219-6.471l.024-.415h-3.959zM733.305 149.788h4.146v-25.08h-4.146zM750.733 131.615c-1.61 0-3.536.756-4.797 2.317v-1.813h-3.902v17.674h3.967v-9.576c0-3.017.748-3.748 1.187-4.187 1.252-1.26 2.83-1.179 2.846-1.179 2.406 0 3.512 1.236 3.512 3.91v11.032h3.984v-12.072c0-5.805-5.659-6.106-6.797-6.106M790.652 149.788h3.967v-17.674h-3.967zM790.62 128.96h4.568v-4.253h-4.569zM388.161 134.065v-1.95h-3.967v17.673h3.967v-8.764c0-2.26.236-3.536 1.073-4.349 1.797-1.772 5.057-.935 5.057-.935v-3.805l-1.496-.057c-2.04 0-3.715.83-4.634 2.187M505.386 134.065v-1.95h-3.976v17.673h3.976v-8.764c0-2.26.252-3.536 1.065-4.349 1.805-1.772 5.048-.935 5.048-.935v-3.805l-1.48-.057c-2.04 0-3.723.83-4.633 2.187M679.462 134.065v-1.943h-3.975v17.666h3.975v-8.764c0-2.26.252-3.536 1.065-4.349 1.805-1.772 5.065-.935 5.065-.935v-3.805l-1.496-.057c-2.04 0-3.707.838-4.634 2.187M403.664 134.701c3.496 0 3.87 2.878 3.894 4.252h-7.69c.154-2.512 1.642-4.252 3.796-4.252m7.992 5.285c0-6.293-3.96-8.374-7.805-8.374-5.097 0-8.252 3.626-8.252 9.471 0 5.854 2.91 9.203 7.967 9.203 7.797 0 7.951-6.52 7.951-6.52h-4.138s0 1.61-1.065 2.626c-.56.537-1.52.805-2.707.805-1.439 0-3.95-.813-3.878-5.26h11.927zM609.96 134.701c3.48 0 3.87 2.878 3.894 4.252h-7.69c.145-2.512 1.633-4.252 3.796-4.252m7.991 5.285c0-6.293-3.967-8.374-7.82-8.374-5.082 0-8.236 3.626-8.236 9.471 0 5.854 2.91 9.203 7.959 9.203 7.805 0 7.95-6.52 7.95-6.52h-4.129s0 1.61-1.065 2.634c-.56.529-1.528.797-2.715.797-1.431 0-3.935-.813-3.886-5.252h11.942zM645.445 134.701c3.487 0 3.877 2.878 3.894 4.252h-7.7c.155-2.512 1.643-4.252 3.806-4.252m7.983 5.285c0-6.293-3.96-8.374-7.813-8.374-5.08 0-8.235 3.626-8.235 9.471 0 5.854 2.902 9.203 7.959 9.203 7.804 0 7.959-6.52 7.959-6.52h-4.146s0 1.61-1.065 2.634c-.561.529-1.52.797-2.724.797-1.43 0-3.935-.813-3.87-5.252h11.935ZM849.758 134.701c3.48 0 3.87 2.878 3.903 4.252h-7.7c.147-2.512 1.635-4.252 3.797-4.252m8 5.285c0-6.293-3.967-8.374-7.829-8.374-5.081 0-8.235 3.626-8.235 9.471 0 5.854 2.902 9.203 7.967 9.203 7.804 0 7.943-6.52 7.943-6.52h-4.13s0 1.61-1.065 2.634c-.561.529-1.52.797-2.716.797-1.43 0-3.943-.813-3.877-5.252h11.942zM471.596 147.2c-1.845 0-2.951-1.024-2.951-2.748 0-2.398 2.935-2.805 4.187-2.87h2.805c0 2.212-.44 3.724-1.326 4.626-.65.667-1.536.992-2.715.992m7.992-9.447c0-4.073-2.447-6.138-7.276-6.138-4.155 0-6.634 1.96-6.789 5.382l-.016.399h4.146l.016-.366c.033-1.602 1.464-2.325 2.764-2.325 2.903 0 3.163 1.292 3.18 3.878h-2.497c-5.463 0-8.6 2.373-8.6 6.511 0 3.57 3.26 5.195 6.283 5.195 2.204 0 3.886-.837 5-2.365 0 1.593.236 1.87 1.39 1.87h2.553l-.154-3.96zM539.478 147.2c-1.845 0-2.951-1.024-2.951-2.748 0-2.398 2.918-2.805 4.179-2.87h2.804c0 2.212-.43 3.724-1.325 4.626-.634.667-1.536.992-2.707.992m7.992-9.447c0-4.073-2.447-6.138-7.293-6.138-4.154 0-6.617 1.96-6.78 5.382l-.008.399h4.146l.008-.366c.024-1.602 1.464-2.325 2.78-2.325 2.887 0 3.147 1.292 3.171 3.878h-2.504c-5.463 0-8.601 2.373-8.601 6.511 0 3.57 3.268 5.195 6.284 5.195 2.203 0 3.894-.837 5.008-2.365 0 1.593.228 1.87 1.382 1.87h2.561l-.154-3.96zM663.186 147.2c-1.845 0-2.951-1.024-2.951-2.748 0-2.398 2.919-2.796 4.179-2.87h2.805c0 2.212-.44 3.724-1.318 4.626-.658.667-1.536.992-2.715.992m7.984-9.447c0-4.073-2.44-6.138-7.277-6.138-4.154 0-6.633 1.968-6.788 5.382l-.016.407h4.146l.016-.374c.025-1.602 1.455-2.325 2.773-2.325 2.902 0 3.154 1.292 3.17 3.878h-2.496c-5.471 0-8.601 2.373-8.601 6.511 0 3.57 3.26 5.195 6.284 5.195 2.203 0 3.886-.837 5.008-2.365 0 1.593.22 1.87 1.382 1.87h2.553l-.154-3.96zM421.405 147.2c-1.853 0-2.95-1.024-2.95-2.748 0-2.398 2.918-2.805 4.178-2.87h2.805c0 2.212-.44 3.724-1.325 4.626-.659.667-1.537.992-2.708.992m7.984-9.447c0-4.073-2.44-6.138-7.284-6.138-4.155 0-6.634 1.96-6.773 5.382l-.024.399h4.154v-.366c.033-1.602 1.456-2.325 2.78-2.325 2.895 0 3.155 1.292 3.18 3.878h-2.496c-5.472 0-8.602 2.373-8.602 6.511 0 3.57 3.244 5.195 6.268 5.195 2.22 0 3.895-.837 5.008-2.365 0 1.593.228 1.87 1.39 1.87h2.553l-.154-3.96zM456.403 131.763c0 1.48-.488 3.22-4.203 3.382h-5.17v-6.772h5.178c3.707.17 4.195 1.894 4.195 3.39m3.358 10.284c-.423-2.585-.846-4.105-3.155-4.975 2.472-.943 4.033-3.081 4.033-5.886 0-4.179-3.081-6.48-8.675-6.48H442.9v25.089h4.13v-10.983h4.316c.041.008.578.04.578.04 1.13.065 1.967.155 2.748.927.926.927 1.056 2.764 1.382 4.975.3 2.082.674 3.878.926 5.033l4.48.008c-1.065-2.732-1.268-5.17-1.7-7.748M594.598 131.763c0 1.488-.496 3.22-4.22 3.382h-5.154v-6.78h5.163c3.715.179 4.21 1.902 4.21 3.398m3.367 10.284c-.431-2.585-.854-4.105-3.171-4.975 2.48-.943 4.032-3.081 4.032-5.886 0-4.179-3.08-6.48-8.674-6.48h-9.057v25.089h4.13v-10.983h4.325c.033.008.561.04.561.04 1.138.065 1.976.155 2.748.927.919.927 1.057 2.764 1.382 4.975.3 2.082.691 3.878.943 5.033l4.463.008c-1.056-2.732-1.276-5.17-1.682-7.748M629.817 139.412c-.561-.163-1.26-.35-1.935-.529-1.577-.398-3.122-.569-3.122-1.87 0-2.089 1.894-2.308 2.707-2.308.797 0 1.862.138 2.48.804.382.39.545.952.504 1.659l-.04.398h4.162l.016-.35c.081-1.438-.325-2.658-1.203-3.6-1.212-1.277-3.301-2-5.748-2-3.488 0-7.032 1.885-7.032 5.495 0 4.073 3.61 4.83 6.512 5.447 2.333.48 3.764.845 3.764 2.09 0 2.308-2.39 2.552-3.415 2.552-1.862 0-3.008-1.057-3.04-2.821l-.017-.374h-4.13v.382c-.016 1.675.488 3.04 1.488 4.049 1.195 1.211 3.057 1.853 5.358 1.853 3.82 0 7.902-1.528 7.902-5.804 0-3.545-2.65-4.333-5.211-5.073M770.295 139.412a71.933 71.933 0 0 0-1.935-.529c-1.569-.398-3.122-.569-3.122-1.87 0-2.089 1.886-2.308 2.707-2.308.797 0 1.862.138 2.488.804.374.39.537.952.488 1.659l-.033.398h4.163l.008-.35c.106-1.438-.317-2.658-1.187-3.6-1.211-1.277-3.3-2-5.748-2-3.496 0-7.032 1.885-7.032 5.495 0 4.073 3.618 4.83 6.504 5.447 2.341.48 3.772.845 3.772 2.09 0 2.308-2.39 2.552-3.423 2.552-1.853 0-2.991-1.057-3.04-2.821l-.024-.374h-4.114v.382c-.024 1.675.48 3.04 1.488 4.049 1.195 1.211 3.048 1.853 5.357 1.853 3.821 0 7.894-1.528 7.894-5.804 0-3.545-2.65-4.333-5.211-5.073M713.79 131.615c-2.244 0-3.935.74-5.179 2.171v-9.081h-3.959v25.088h3.96v-9.08c0-1.431-.066-2.366.503-3.748.545-1.236 2.31-2.155 3.48-2.114 2.439.049 3.39 1.317 3.39 4.544v10.398h3.975v-11.836c0-4.033-2.243-6.342-6.17-6.342M783.785 127.366l-3.975 1.244v3.496c-.602-.025-2.894-.114-2.894-.114v3.178s2.309-.016 2.894-.024v10.35c0 .934-.187 3.064 1.83 4.235 2.145 1.049 5.91.3 5.91.3v-3.219s-1.05.22-2.074.196c-.69-.033-1.69-.139-1.69-1.342v-10.52c.625 0 3.902.024 3.902.024v-3.178s-3.268.09-3.903.122zM804.556 127.366l-3.967 1.244v3.496c-.602-.025-2.902-.114-2.902-.114v3.178s2.308-.016 2.902-.024v10.35c0 .934-.203 3.064 1.821 4.235 2.146 1.049 5.91.3 5.91.3v-3.219s-1.048.22-2.065.196c-.69-.033-1.699-.139-1.699-1.342v-10.52c.626 0 3.903.024 3.903.024v-3.178s-3.269.09-3.903.122zM836.143 127.366l-3.976 1.244v3.496c-.585-.025-2.902-.114-2.902-.114v3.178s2.325-.016 2.902-.024v10.35c0 .934-.179 3.064 1.83 4.235 2.146 1.049 5.91.3 5.91.3v-3.219s-1.057.22-2.073.196c-.683-.033-1.691-.139-1.691-1.342v-10.52c.626 0 3.902.024 3.902.024v-3.178s-3.268.09-3.902.122zM822.71 132.119v9.08c0 1.496-.186 2.878-.617 3.821a3.796 3.796 0 0 1-3.415 2.18c-2.414 0-3.35-1.31-3.35-4.708V132.12h-3.966v11.698c0 3.87 2.382 6.472 5.934 6.472 2.342 0 4.195-.838 5.472-2.366v1.87h3.91v-17.674h-.39zM449.898 68.084c0-4.007-2.106-6.032-6.285-6.032h-41.957v7.049h40.405v10.577h-42.275v7.064h22.178v6.317h-20.357v7.057h40.454v13.47h7.837V98.735c0-3.821-1.886-5.675-5.772-5.675h-14.398v-6.317h22.788v-7.064h-2.618zM546.683 91.386h18.764v-6.975h-37.373V69.02h37.39v-6.967H520.14v23.893c0 3.366 2.22 5.439 5.764 5.439h13.113v12.715h-22.113v7.057h51.876V104.1h-22.097ZM576.215 69.1h20.901c-.048 7.974-1.756 14.316-5.146 18.82-3.601 4.829-9.032 7.398-16.186 7.633h-.374v7.7l.423-.009c7.658-.374 14.024-2.715 18.893-7.008 6.919-5.967 10.447-15.552 10.447-28.486v-5.7h-28.958zM615.83 113.586h7.837V62.05h-7.838zM799.995 68.084c0-4.007-2.113-6.032-6.308-6.032h-41.95v7.049h40.405v17.901h-42.258v7.049h21.625v19.536h7.772V94.05h23.308v-7.049h-2.594zM388.353 61.947h-7.845v44.584h-30.243V94.994h-7.861v12.894c0 3.553 2.902 5.7 5.723 5.7h34.324c5.309 0 5.902-3.797 5.902-5.44v-26.04h7.114v-7.056h-7.114z" style="fill:#2056ae;fill-opacity:1;stroke-width:8.12977" transform="matrix(.71429 0 0 .71429 3.223 21.429)"/><path fill="#015eab" d="M355.675 71.563c4.138 0 7.504 3.138 7.504 6.992 0 3.87-3.366 6.991-7.504 6.991s-7.503-3.121-7.503-6.991c0-3.854 3.365-6.992 7.503-6.992m0 20.772c8.455 0 15.309-6.016 15.309-13.447 0-2.992-1.122-5.74-3-7.975h4.95V64.05H359.96v-4.91h-8.39v4.91h-13.154v6.862h4.96c-1.879 2.236-3.009 4.983-3.009 7.975 0 7.43 6.853 13.447 15.308 13.447M733.36 67.681h-9.17v6.976h9.17v3.877h-9.17v6.976h9.17v21.023h-30.235V94.99h-7.853v12.902c0 3.553 2.894 5.699 5.707 5.699h34.308c5.34 0 5.918-3.797 5.918-5.439V61.95h-7.845z" style="fill:#2056ae;fill-opacity:1;stroke-width:8.12977" transform="matrix(.71429 0 0 .71429 3.223 21.429)"/><path fill="#015eab" d="M698.2 75.812c0-4.26 3.755-7.707 8.422-7.707 4.658 0 8.414 3.447 8.414 7.707s-3.756 7.724-8.414 7.724c-4.667 0-8.423-3.464-8.423-7.724m24.788 0c0-8.268-7.341-14.975-16.365-14.975-9.04 0-16.357 6.707-16.357 14.975 0 8.276 7.317 14.984 16.357 14.984 9.024 0 16.365-6.708 16.365-14.984M647.802 75.96c4.83-1.301 8.325-3.203 10.512-5.642 2.138 2.439 5.626 4.341 10.414 5.642 3.96 1.032 8.447 1.618 13.309 1.69h.406v-6.592l-.406-.009c-5.83-.146-10.447-.959-13.675-2.373-3.812-1.683-5.658-4.09-5.658-7.366v-.415h-8.748v.415c0 3.276-1.861 5.666-5.658 7.3-3.252 1.431-7.853 2.244-13.69 2.44l-.399.008v6.536h.399c4.804-.04 9.251-.602 13.194-1.634M632.38 86.73h22.114v2.432H634.21v6.707h40.38v2.097h-40.38v9.927c0 3.552 2.902 5.69 5.707 5.69h42.519v-6.812H642.08v-2.179h40.356v-15.43h-20.268V86.73h22.097v-6.886h-51.884zM476.621 77.982c1.602 2.016 3.91 3.601 6.927 4.682 2.683 1.025 5.674 1.545 8.894 1.545h.414v-6.935l-.39-.032c-4.065-.268-7.146-1.098-9.17-2.472-1.48-1.008-2.277-2.3-2.561-3.861h11.577v-6.862h-11.683v-4.91h-8.211v4.91h-11.886v6.862h11.569c-.309 1.61-1.114 2.935-2.577 3.926-1.943 1.366-5.032 2.204-9.146 2.472l-.382.008v6.894h.398c2.976-.04 5.91-.561 8.764-1.528 3.276-1.13 5.764-2.708 7.463-4.7" style="fill:#2056ae;fill-opacity:1;stroke-width:8.12977" transform="matrix(.71429 0 0 .71429 3.223 21.429)"/><path fill="#015eab" d="M500.899 69.498h-7.601v6.984h7.601v10.74h-38.055v6.885h38.055v2.91h-38.055v10.87c0 3.553 2.886 5.699 5.69 5.699h40.218v-6.967h-38.08v-2.91h38.08V61.945H500.9zM850.85 61.947v29.527h-12.032v6.878h12.032v8.179h-30.227V93.279h-7.87v14.61c0 3.552 2.903 5.698 5.716 5.698h34.324c5.316 0 5.902-3.796 5.902-5.439V61.947Z" style="fill:#2056ae;fill-opacity:1;stroke-width:8.12977" transform="matrix(.71429 0 0 .71429 3.223 21.429)"/><path fill="#015eab" d="M821.105 72.545c0-3.512 3.138-6.357 7.008-6.357 3.886 0 7.032 2.845 7.032 6.357s-3.146 6.358-7.032 6.358c-3.87 0-7.008-2.846-7.008-6.358m3.358 26.194h7.764V88.236h14.788v-6.967h-7.87c2.496-2.293 4.033-5.358 4.033-8.724 0-7.08-6.748-12.828-15.065-12.828-8.3 0-15.04 5.747-15.04 12.828 0 3.366 1.537 6.43 4.024 8.724h-8.438v6.967h15.804z" style="fill:#2056ae;fill-opacity:1;stroke-width:8.12977" transform="matrix(.71429 0 0 .71429 3.223 21.429)"/><path fill="#f9a126" d="m-55.488 8.15.813 1.34c26.137-14.397 94.59-40.006 143.75-29.746C103.571-17.24 111.188-7.98 111.123.637c-.114 15.122-14.235 26.04-34.112 30.52 0 0 38.21 15.113 52.08 59.59h27.811c-7.292-24.283-21.227-45.258-44.21-59.339 10.748-3.422 30.015-15.194 30.015-33.055 0-15.52-17.438-28.43-49.274-30.3C41.077-35.037-29.595-7.867-55.488 8.15" style="fill:#f7960f;fill-opacity:1;stroke-width:8.12977" transform="matrix(.71429 0 0 .71429 42.857 63.751)"/><path fill="#9bcb41" d="m-29.14-16.012.674 1.008c59.909-27.893 112.98-35.007 148.637-32.853 34.259 2.065 54.908 17.317 54.908 38.332 0 21.463-20.446 34.633-40.315 38.576 20.479 11.146 39.828 31.592 48.047 61.697h27.82c-6.87-22.536-19.634-46.397-42.795-61.616 23.796-6.48 36.657-23.65 36.657-42.478 0-23.186-19.373-42.575-60.892-45.526-42.372-3.017-115.142 12-172.741 42.86" style="fill:#8cd024;fill-opacity:1;stroke-width:8.12977" transform="matrix(.71429 0 0 .71429 42.857 63.751)"/><path fill="#015eab" d="M88.151 90.744 41.909 44.17 85.24 0H55.876L23.365 33.291V0H0v90.744h23.365V55.006l34.38 35.738zM246.858 90.747H222.16V.003h24.698z" style="fill:#2056ae;fill-opacity:1;stroke-width:8.12977" transform="matrix(.71429 0 0 .71429 42.857 63.751)"/></svg>