<svg width="110" height="144" xmlns="http://www.w3.org/2000/svg" xmlns:xlink="http://www.w3.org/1999/xlink" xml:space="preserve" overflow="hidden"><g transform="translate(-3642 -1210)"><path d="M3738.25 1258 3731.38 1258 3731.38 1244.29C3731.38 1225.36 3715.98 1210 3697 1210 3678.02 1210 3662.62 1225.36 3662.62 1244.29L3662.62 1258 3655.75 1258C3648.15 1258 3642 1264.14 3642 1271.71L3642 1340.29C3642 1347.86 3648.15 1354 3655.75 1354L3738.25 1354C3745.85 1354 3752 1347.86 3752 1340.29L3752 1271.71C3752 1264.14 3745.85 1258 3738.25 1258ZM3697 1319.71C3689.4 1319.71 3683.25 1313.58 3683.25 1306 3683.25 1298.42 3689.4 1292.29 3697 1292.29 3704.6 1292.29 3710.75 1298.42 3710.75 1306 3710.75 1313.58 3704.6 1319.71 3697 1319.71ZM3718.31 1258 3675.69 1258 3675.69 1244.29C3675.69 1232.56 3685.24 1223.03 3697 1223.03 3708.76 1223.03 3718.31 1232.56 3718.31 1244.29L3718.31 1258Z" fill="#313DB1" fill-rule="evenodd"/></g></svg>