<svg width="32" height="32" xmlns="http://www.w3.org/2000/svg" xmlns:xlink="http://www.w3.org/1999/xlink" xml:space="preserve" overflow="hidden"><defs><clipPath id="clip0"><rect x="624" y="344" width="32" height="32"/></clipPath></defs><g clip-path="url(#clip0)" transform="translate(-624 -344)"><path d="M655 360C655 368.284 648.284 375 640 375 631.716 375 625 368.284 625 360 625 351.716 631.716 345 640 345 648.284 345 655 351.716 655 360Z" stroke="#FFFFFF" stroke-width="2" stroke-linejoin="round" stroke-miterlimit="10" fill="none"/><path d="M650 371 650 371C650 365.477 645.523 361 640 361L640 361C634.477 361 630 365.477 630 371L630 371" stroke="#FFFFFF" stroke-width="2" stroke-linejoin="round" stroke-miterlimit="10" fill="none"/><path d="M646 355C646 358.314 643.314 361 640 361 636.686 361 634 358.314 634 355 634 351.686 636.686 349 640 349 643.314 349 646 351.686 646 355Z" stroke="#FFFFFF" stroke-width="2" stroke-linejoin="round" stroke-miterlimit="10" fill="none"/></g></svg>